<?xml version="1.0" standalone="no"?>
<!DOCTYPE svg PUBLIC "-//W3C//DTD SVG 20010904//EN"
 "http://www.w3.org/TR/2001/REC-SVG-20010904/DTD/svg10.dtd">
<svg version="1.0" xmlns="http://www.w3.org/2000/svg"
 width="456.000000pt" height="270.000000pt" viewBox="0 0 456.000000 270.000000"
 preserveAspectRatio="xMidYMid meet">

<g transform="translate(0.000000,270.000000) scale(0.100000,-0.100000)"
fill="#000000" stroke="none">
<path d="M1910 1667 l0 -262 128 -64 c146 -72 218 -116 226 -137 5 -12 2 -12
-23 0 -15 8 -95 42 -177 74 -82 33 -161 66 -176 73 l-28 12 0 238 c0 225 -1
239 -19 249 -11 5 -24 10 -30 10 -8 0 -11 -84 -11 -264 l0 -263 193 -73 c105
-40 208 -83 228 -96 45 -30 83 -30 128 0 20 13 123 56 229 96 l192 73 0 263
c0 277 -1 283 -43 252 -15 -12 -17 -42 -19 -251 l-3 -239 -180 -72 c-99 -40
-190 -78 -202 -84 -19 -11 -22 -10 -17 2 8 21 80 65 227 137 l127 64 0 262 c0
145 -3 263 -7 263 -5 -1 -75 -35 -158 -78 -118 -61 -156 -85 -180 -117 l-30
-40 -30 40 c-24 32 -61 56 -180 117 -83 43 -153 77 -157 78 -5 0 -8 -118 -8
-263z m197 111 c79 -42 144 -84 156 -100 l21 -28 25 30 c23 27 277 170 302
170 5 0 9 -84 9 -204 l0 -205 -142 -73 c-118 -60 -147 -80 -168 -112 -22 -33
-26 -36 -35 -21 -29 49 -57 70 -185 135 l-140 71 0 204 c0 140 3 205 11 205 6
0 72 -33 146 -72z"/>
<path d="M2000 1742 c0 -13 24 -30 82 -57 45 -22 101 -55 125 -72 51 -39 59
-21 12 27 -26 25 -194 120 -214 120 -3 0 -5 -8 -5 -18z"/>
<path d="M2455 1707 c-69 -36 -106 -62 -122 -86 -33 -49 -28 -58 13 -21 20 17
78 52 130 78 66 33 94 52 94 64 0 10 -3 18 -7 18 -5 0 -53 -24 -108 -53z"/>
<path d="M2000 1631 c0 -16 20 -31 83 -62 45 -23 101 -55 125 -71 23 -16 42
-25 42 -19 0 26 -60 74 -150 121 -90 46 -100 49 -100 31z"/>
<path d="M2470 1600 c-92 -47 -140 -85 -154 -123 -5 -15 1 -13 26 8 17 14 76
49 130 76 75 37 98 54 98 69 0 11 -1 20 -2 19 -2 0 -46 -22 -98 -49z"/>
<path d="M2000 1512 c0 -13 24 -30 82 -57 45 -22 101 -55 125 -72 51 -39 59
-21 12 27 -26 25 -194 120 -214 120 -3 0 -5 -8 -5 -18z"/>
<path d="M2455 1477 c-69 -36 -106 -62 -122 -86 -33 -49 -28 -58 13 -21 20 17
78 52 130 78 66 33 94 52 94 64 0 10 -3 18 -7 18 -5 0 -53 -24 -108 -53z"/>
<path d="M444 990 c-35 -14 -64 -59 -64 -101 0 -30 7 -43 37 -71 113 -101 122
-119 83 -158 -24 -24 -72 -26 -105 -4 -24 16 -25 16 -25 -9 0 -22 7 -28 39
-38 84 -25 161 23 161 99 -1 49 -15 72 -77 121 -29 23 -56 53 -59 67 -13 52
54 83 104 48 21 -14 22 -14 22 11 0 38 -62 57 -116 35z"/>
<path d="M2773 980 c-38 -23 -53 -48 -53 -91 0 -31 14 -49 108 -132 37 -34 41
-68 11 -98 -21 -21 -59 -23 -101 -4 -14 5 -18 2 -18 -14 0 -49 111 -53 160 -6
58 56 45 126 -36 186 -69 50 -83 78 -60 114 19 29 60 33 94 9 21 -14 22 -14
22 10 0 47 -70 61 -127 26z"/>
<path d="M3479 979 c-13 -26 2 -69 25 -69 24 0 40 38 27 66 -13 30 -37 31 -52
3z"/>
<path d="M2453 973 c-8 -2 -13 -22 -13 -44 0 -36 -2 -39 -29 -39 -36 0 -90
-36 -114 -77 -21 -37 -26 -127 -8 -161 13 -24 60 -52 87 -52 10 0 28 10 41 22
20 18 23 19 23 5 0 -11 8 -17 25 -17 l25 0 0 185 c0 189 -1 193 -37 178z m-15
-225 l3 -98 -31 0 c-17 0 -40 4 -50 10 -41 22 -49 131 -12 173 11 12 27 17 51
15 l36 -3 3 -97z"/>
<path d="M1466 884 c-35 -39 -36 -44 -17 -44 20 0 21 -5 21 -100 0 -87 3 -103
20 -120 24 -24 63 -26 84 -4 24 23 19 34 -13 34 -36 0 -41 12 -41 111 l0 79
30 0 c23 0 30 4 30 20 0 16 -7 20 -30 20 -25 0 -30 4 -30 25 0 34 -8 31 -54
-21z"/>
<path d="M738 883 c-9 -2 -23 -15 -32 -28 -16 -24 -16 -24 20 -18 25 4 39 2
45 -8 5 -8 9 -60 9 -116 l0 -103 25 0 25 0 0 105 c0 113 6 125 62 125 42 0 48
-17 48 -127 l0 -103 25 0 25 0 0 114 c0 99 -3 117 -21 140 -27 35 -60 33 -104
-5 -19 -17 -35 -26 -35 -20 0 6 -9 20 -20 31 -19 19 -37 23 -72 13z"/>
<path d="M1090 883 c-15 -6 -30 -23 -30 -35 0 -3 17 -4 38 -1 46 6 65 -12 60
-58 -3 -27 -9 -34 -48 -49 -60 -23 -88 -60 -72 -95 18 -39 57 -53 93 -33 16
10 29 13 29 8 0 -6 11 -10 25 -10 l25 0 0 115 c0 110 -1 117 -25 140 -23 24
-60 31 -95 18z m70 -199 c0 -34 -1 -35 -31 -32 -63 6 -67 68 -4 68 33 0 35 -2
35 -36z"/>
<path d="M1364 865 c-30 -30 -34 -31 -34 -5 0 15 -7 20 -25 20 l-25 0 0 -135
0 -135 25 0 25 0 0 105 c0 96 2 105 21 116 12 6 32 9 45 6 13 -2 24 -1 24 2 0
3 3 16 6 29 9 31 -29 30 -62 -3z"/>
<path d="M1818 880 c-33 -20 -22 -39 18 -33 43 7 64 -13 64 -58 0 -22 -7 -30
-42 -44 -52 -20 -88 -52 -88 -77 0 -54 58 -83 104 -53 16 11 26 13 26 6 0 -6
12 -11 26 -11 l26 0 -4 120 c-2 93 -7 123 -19 135 -20 20 -88 29 -111 15z m82
-196 c0 -35 -1 -35 -37 -32 -35 3 -38 6 -41 36 -3 31 -2 32 37 32 40 0 41 -1
41 -36z"/>
<path d="M2095 864 c-24 -26 -25 -26 -25 -5 0 16 -6 21 -25 21 l-25 0 0 -135
0 -135 25 0 25 0 0 109 c0 117 2 121 55 121 36 0 45 -28 45 -134 0 -89 1 -96
20 -96 19 0 20 7 20 120 0 107 -2 122 -20 140 -28 28 -66 25 -95 -6z"/>
<path d="M3008 879 c-31 -17 -21 -35 15 -31 41 5 67 -18 67 -58 0 -24 -7 -30
-55 -50 -58 -24 -75 -42 -75 -83 0 -46 61 -70 104 -42 16 11 26 13 26 6 0 -6
11 -11 25 -11 l25 0 0 105 c0 116 -13 158 -52 169 -33 8 -60 7 -80 -5z m82
-195 c0 -35 -1 -35 -37 -32 -35 3 -38 6 -41 36 -3 31 -2 32 37 32 40 0 41 -1
41 -36z"/>
<path d="M3285 863 c-24 -27 -25 -27 -25 -5 0 17 -6 22 -25 22 l-25 0 0 -175
0 -175 25 0 c23 0 25 4 25 45 0 25 2 45 4 45 3 0 17 -5 32 -10 74 -28 124 24
124 128 0 68 -16 111 -52 136 -32 23 -54 20 -83 -11z m69 -45 c24 -34 21 -133
-4 -158 -20 -20 -45 -25 -74 -14 -13 5 -16 23 -16 94 0 94 2 98 52 99 17 1 33
-7 42 -21z"/>
<path d="M3652 877 c-36 -17 -62 -77 -62 -142 0 -48 4 -60 33 -91 39 -43 102
-57 130 -29 24 23 21 33 -8 27 -40 -7 -74 6 -90 38 -28 54 -22 60 55 60 l70 0
0 46 c0 37 -5 51 -29 75 -31 30 -60 35 -99 16z m76 -39 c5 -7 13 -23 16 -35 7
-22 5 -23 -48 -23 -46 0 -56 3 -56 17 0 41 64 70 88 41z"/>
<path d="M3917 863 c-26 -27 -27 -27 -27 -5 0 17 -6 22 -25 22 l-25 0 0 -135
0 -135 25 0 25 0 0 110 0 109 35 7 c58 10 65 -3 65 -122 l0 -104 26 0 26 0 -4
121 c-3 113 -5 122 -27 140 -32 26 -62 24 -94 -8z"/>
<path d="M4143 880 c-32 -13 -56 -55 -49 -85 3 -13 27 -44 52 -69 39 -39 44
-48 34 -66 -12 -22 -40 -26 -71 -10 -16 9 -19 7 -19 -14 0 -43 76 -51 115 -11
41 40 34 80 -22 137 -40 40 -46 51 -36 66 7 11 23 17 47 16 28 -1 36 3 36 16
0 28 -42 38 -87 20z"/>
<path d="M630 745 l0 -135 24 0 c25 0 25 1 28 108 4 149 2 162 -28 162 l-24 0
0 -135z"/>
<path d="M3480 745 l0 -135 25 0 25 0 0 135 0 135 -25 0 -25 0 0 -135z"/>
</g>
</svg>
